<svg xmlns="http://www.w3.org/2000/svg" width="1536" height="735" style="cursor: move;"><g transform="translate(157,-42) scale(1)"><path class="link" marker-end="" d="M676,239.5C548.5,239.5 548.5,398.5 421,398.5" style="stroke-width: 0.85; stroke-opacity: 1; stroke: rgb(151, 151, 255); fill: none; opacity: 1;"></path><path class="link" marker-end="" d="M676,239.5C574,239.5 574,398.5 472,398.5" style="stroke-width: 0.85; stroke-opacity: 1; stroke: rgb(255, 80, 80); fill: none; opacity: 1;"></path><path class="link" marker-end="" d="M676,239.5C599.5,239.5 599.5,398.5 523,398.5" style="stroke-width: 0.85; stroke-opacity: 1; stroke: rgb(24, 24, 255); fill: none; opacity: 1;"></path><path class="link" marker-end="" d="M676,239.5C625,239.5 625,398.5 574,398.5" style="stroke-width: 0.85; stroke-opacity: 1; stroke: rgb(255, 209, 209); fill: none; opacity: 1;"></path><path class="link" marker-end="" d="M676,239.5C650.5,239.5 650.5,398.5 625,398.5" style="stroke-width: 0.85; stroke-opacity: 1; stroke: rgb(8, 8, 255); fill: none; opacity: 1;"></path><path class="link" marker-end="" d="M676,239.5C676,239.5 676,398.5 676,398.5" style="stroke-width: 0.85; stroke-opacity: 1; stroke: rgb(28, 28, 255); fill: none; opacity: 1;"></path><path class="link" marker-end="" d="M676,239.5C701.5,239.5 701.5,398.5 727,398.5" style="stroke-width: 0.85; stroke-opacity: 1; stroke: rgb(32, 32, 255); fill: none; opacity: 1;"></path><path class="link" marker-end="" d="M676,239.5C727,239.5 727,398.5 778,398.5" style="stroke-width: 0.85; stroke-opacity: 1; stroke: rgb(42, 42, 255); fill: none; opacity: 1;"></path><path class="link" marker-end="" d="M676,239.5C752.5,239.5 752.5,398.5 829,398.5" style="stroke-width: 0.85; stroke-opacity: 1; stroke: rgb(186, 186, 255); fill: none; opacity: 1;"></path><path class="link" marker-end="" d="M676,239.5C778,239.5 778,398.5 880,398.5" style="stroke-width: 0.85; stroke-opacity: 1; stroke: rgb(78, 78, 255); fill: none; opacity: 1;"></path><path class="link" marker-end="" d="M676,239.5C803.5,239.5 803.5,398.5 931,398.5" style="stroke-width: 0.85; stroke-opacity: 1; stroke: rgb(255, 204, 204); fill: none; opacity: 1;"></path><path class="link" marker-end="" d="M727,239.5C574,239.5 574,398.5 421,398.5" style="stroke-width: 0.85; stroke-opacity: 1; stroke: rgb(228, 228, 255); fill: none; opacity: 1;"></path><path class="link" marker-end="" d="M727,239.5C599.5,239.5 599.5,398.5 472,398.5" style="stroke-width: 0.85; stroke-opacity: 1; stroke: rgb(124, 124, 255); fill: none; opacity: 1;"></path><path class="link" marker-end="" d="M727,239.5C625,239.5 625,398.5 523,398.5" style="stroke-width: 0.85; stroke-opacity: 1; stroke: rgb(59, 59, 255); fill: none; opacity: 1;"></path><path class="link" marker-end="" d="M727,239.5C650.5,239.5 650.5,398.5 574,398.5" style="stroke-width: 0.85; stroke-opacity: 1; stroke: rgb(255, 54, 54); fill: none; opacity: 1;"></path><path class="link" marker-end="" d="M727,239.5C676,239.5 676,398.5 625,398.5" style="stroke-width: 0.85; stroke-opacity: 1; stroke: rgb(255, 55, 55); fill: none; opacity: 1;"></path><path class="link" marker-end="" d="M727,239.5C701.5,239.5 701.5,398.5 676,398.5" style="stroke-width: 0.85; stroke-opacity: 1; stroke: rgb(255, 124, 124); fill: none; opacity: 1;"></path><path class="link" marker-end="" d="M727,239.5C727,239.5 727,398.5 727,398.5" style="stroke-width: 0.85; stroke-opacity: 1; stroke: rgb(68, 68, 255); fill: none; opacity: 1;"></path><path class="link" marker-end="" d="M727,239.5C752.5,239.5 752.5,398.5 778,398.5" style="stroke-width: 0.85; stroke-opacity: 1; stroke: rgb(255, 92, 92); fill: none; opacity: 1;"></path><path class="link" marker-end="" d="M727,239.5C778,239.5 778,398.5 829,398.5" style="stroke-width: 0.85; stroke-opacity: 1; stroke: rgb(114, 114, 255); fill: none; opacity: 1;"></path><path class="link" marker-end="" d="M727,239.5C803.5,239.5 803.5,398.5 880,398.5" style="stroke-width: 0.85; stroke-opacity: 1; stroke: rgb(255, 45, 45); fill: none; opacity: 1;"></path><path class="link" marker-end="" d="M727,239.5C829,239.5 829,398.5 931,398.5" style="stroke-width: 0.85; stroke-opacity: 1; stroke: rgb(24, 24, 255); fill: none; opacity: 1;"></path><path class="link" marker-end="" d="M778,239.5C599.5,239.5 599.5,398.5 421,398.5" style="stroke-width: 0.85; stroke-opacity: 1; stroke: rgb(119, 119, 255); fill: none; opacity: 1;"></path><path class="link" marker-end="" d="M778,239.5C625,239.5 625,398.5 472,398.5" style="stroke-width: 0.85; stroke-opacity: 1; stroke: rgb(253, 253, 255); fill: none; opacity: 1;"></path><path class="link" marker-end="" d="M778,239.5C650.5,239.5 650.5,398.5 523,398.5" style="stroke-width: 0.85; stroke-opacity: 1; stroke: rgb(8, 8, 255); fill: none; opacity: 1;"></path><path class="link" marker-end="" d="M778,239.5C676,239.5 676,398.5 574,398.5" style="stroke-width: 0.85; stroke-opacity: 1; stroke: rgb(255, 100, 100); fill: none; opacity: 1;"></path><path class="link" marker-end="" d="M778,239.5C701.5,239.5 701.5,398.5 625,398.5" style="stroke-width: 0.85; stroke-opacity: 1; stroke: rgb(255, 245, 245); fill: none; opacity: 1;"></path><path class="link" marker-end="" d="M778,239.5C727,239.5 727,398.5 676,398.5" style="stroke-width: 0.85; stroke-opacity: 1; stroke: rgb(57, 57, 255); fill: none; opacity: 1;"></path><path class="link" marker-end="" d="M778,239.5C752.5,239.5 752.5,398.5 727,398.5" style="stroke-width: 0.85; stroke-opacity: 1; stroke: rgb(74, 74, 255); fill: none; opacity: 1;"></path><path class="link" marker-end="" d="M778,239.5C778,239.5 778,398.5 778,398.5" style="stroke-width: 0.85; stroke-opacity: 1; stroke: rgb(255, 67, 67); fill: none; opacity: 1;"></path><path class="link" marker-end="" d="M778,239.5C803.5,239.5 803.5,398.5 829,398.5" style="stroke-width: 0.85; stroke-opacity: 1; stroke: rgb(135, 135, 255); fill: none; opacity: 1;"></path><path class="link" marker-end="" d="M778,239.5C829,239.5 829,398.5 880,398.5" style="stroke-width: 0.85; stroke-opacity: 1; stroke: rgb(133, 133, 255); fill: none; opacity: 1;"></path><path class="link" marker-end="" d="M778,239.5C854.5,239.5 854.5,398.5 931,398.5" style="stroke-width: 0.85; stroke-opacity: 1; stroke: rgb(168, 168, 255); fill: none; opacity: 1;"></path><path class="link" marker-end="" d="M829,239.5C625,239.5 625,398.5 421,398.5" style="stroke-width: 0.85; stroke-opacity: 1; stroke: rgb(255, 65, 65); fill: none; opacity: 1;"></path><path class="link" marker-end="" d="M829,239.5C650.5,239.5 650.5,398.5 472,398.5" style="stroke-width: 0.85; stroke-opacity: 1; stroke: rgb(203, 203, 255); fill: none; opacity: 1;"></path><path class="link" marker-end="" d="M829,239.5C676,239.5 676,398.5 523,398.5" style="stroke-width: 0.85; stroke-opacity: 1; stroke: rgb(182, 182, 255); fill: none; opacity: 1;"></path><path class="link" marker-end="" d="M829,239.5C701.5,239.5 701.5,398.5 574,398.5" style="stroke-width: 0.85; stroke-opacity: 1; stroke: rgb(84, 84, 255); fill: none; opacity: 1;"></path><path class="link" marker-end="" d="M829,239.5C727,239.5 727,398.5 625,398.5" style="stroke-width: 0.85; stroke-opacity: 1; stroke: rgb(248, 248, 255); fill: none; opacity: 1;"></path><path class="link" marker-end="" d="M829,239.5C752.5,239.5 752.5,398.5 676,398.5" style="stroke-width: 0.85; stroke-opacity: 1; stroke: rgb(255, 247, 247); fill: none; opacity: 1;"></path><path class="link" marker-end="" d="M829,239.5C778,239.5 778,398.5 727,398.5" style="stroke-width: 0.85; stroke-opacity: 1; stroke: rgb(255, 29, 29); fill: none; opacity: 1;"></path><path class="link" marker-end="" d="M829,239.5C803.5,239.5 803.5,398.5 778,398.5" style="stroke-width: 0.85; stroke-opacity: 1; stroke: rgb(236, 236, 255); fill: none; opacity: 1;"></path><path class="link" marker-end="" d="M829,239.5C829,239.5 829,398.5 829,398.5" style="stroke-width: 0.85; stroke-opacity: 1; stroke: rgb(157, 157, 255); fill: none; opacity: 1;"></path><path class="link" marker-end="" d="M829,239.5C854.5,239.5 854.5,398.5 880,398.5" style="stroke-width: 0.85; stroke-opacity: 1; stroke: rgb(255, 194, 194); fill: none; opacity: 1;"></path><path class="link" marker-end="" d="M829,239.5C880,239.5 880,398.5 931,398.5" style="stroke-width: 0.85; stroke-opacity: 1; stroke: rgb(4, 4, 255); fill: none; opacity: 1;"></path><path class="link" marker-end="" d="M370,398.5C535.75,398.5 535.75,557.5 701.5,557.5" style="stroke-width: 0.85; stroke-opacity: 1; stroke: rgb(255, 252, 252); fill: none; opacity: 1;"></path><path class="link" marker-end="" d="M370,398.5C561.25,398.5 561.25,557.5 752.5,557.5" style="stroke-width: 0.85; stroke-opacity: 1; stroke: rgb(255, 126, 126); fill: none; opacity: 1;"></path><path class="link" marker-end="" d="M370,398.5C586.75,398.5 586.75,557.5 803.5,557.5" style="stroke-width: 0.85; stroke-opacity: 1; stroke: rgb(255, 17, 17); fill: none; opacity: 1;"></path><path class="link" marker-end="" d="M421,398.5C561.25,398.5 561.25,557.5 701.5,557.5" style="stroke-width: 0.85; stroke-opacity: 1; stroke: rgb(254, 254, 255); fill: none; opacity: 1;"></path><path class="link" marker-end="" d="M421,398.5C586.75,398.5 586.75,557.5 752.5,557.5" style="stroke-width: 0.85; stroke-opacity: 1; stroke: rgb(255, 164, 164); fill: none; opacity: 1;"></path><path class="link" marker-end="" d="M421,398.5C612.25,398.5 612.25,557.5 803.5,557.5" style="stroke-width: 0.85; stroke-opacity: 1; stroke: rgb(191, 191, 255); fill: none; opacity: 1;"></path><path class="link" marker-end="" d="M472,398.5C586.75,398.5 586.75,557.5 701.5,557.5" style="stroke-width: 0.85; stroke-opacity: 1; stroke: rgb(255, 100, 100); fill: none; opacity: 1;"></path><path class="link" marker-end="" d="M472,398.5C612.25,398.5 612.25,557.5 752.5,557.5" style="stroke-width: 0.85; stroke-opacity: 1; stroke: rgb(88, 88, 255); fill: none; opacity: 1;"></path><path class="link" marker-end="" d="M472,398.5C637.75,398.5 637.75,557.5 803.5,557.5" style="stroke-width: 0.85; stroke-opacity: 1; stroke: rgb(80, 80, 255); fill: none; opacity: 1;"></path><path class="link" marker-end="" d="M523,398.5C612.25,398.5 612.25,557.5 701.5,557.5" style="stroke-width: 0.85; stroke-opacity: 1; stroke: rgb(130, 130, 255); fill: none; opacity: 1;"></path><path class="link" marker-end="" d="M523,398.5C637.75,398.5 637.75,557.5 752.5,557.5" style="stroke-width: 0.85; stroke-opacity: 1; stroke: rgb(255, 88, 88); fill: none; opacity: 1;"></path><path class="link" marker-end="" d="M523,398.5C663.25,398.5 663.25,557.5 803.5,557.5" style="stroke-width: 0.85; stroke-opacity: 1; stroke: rgb(81, 81, 255); fill: none; opacity: 1;"></path><path class="link" marker-end="" d="M574,398.5C637.75,398.5 637.75,557.5 701.5,557.5" style="stroke-width: 0.85; stroke-opacity: 1; stroke: rgb(68, 68, 255); fill: none; opacity: 1;"></path><path class="link" marker-end="" d="M574,398.5C663.25,398.5 663.25,557.5 752.5,557.5" style="stroke-width: 0.85; stroke-opacity: 1; stroke: rgb(34, 34, 255); fill: none; opacity: 1;"></path><path class="link" marker-end="" d="M574,398.5C688.75,398.5 688.75,557.5 803.5,557.5" style="stroke-width: 0.85; stroke-opacity: 1; stroke: rgb(70, 70, 255); fill: none; opacity: 1;"></path><path class="link" marker-end="" d="M625,398.5C663.25,398.5 663.25,557.5 701.5,557.5" style="stroke-width: 0.85; stroke-opacity: 1; stroke: rgb(176, 176, 255); fill: none; opacity: 1;"></path><path class="link" marker-end="" d="M625,398.5C688.75,398.5 688.75,557.5 752.5,557.5" style="stroke-width: 0.85; stroke-opacity: 1; stroke: rgb(88, 88, 255); fill: none; opacity: 1;"></path><path class="link" marker-end="" d="M625,398.5C714.25,398.5 714.25,557.5 803.5,557.5" style="stroke-width: 0.85; stroke-opacity: 1; stroke: rgb(255, 196, 196); fill: none; opacity: 1;"></path><path class="link" marker-end="" d="M676,398.5C688.75,398.5 688.75,557.5 701.5,557.5" style="stroke-width: 0.85; stroke-opacity: 1; stroke: rgb(105, 105, 255); fill: none; opacity: 1;"></path><path class="link" marker-end="" d="M676,398.5C714.25,398.5 714.25,557.5 752.5,557.5" style="stroke-width: 0.85; stroke-opacity: 1; stroke: rgb(11, 11, 255); fill: none; opacity: 1;"></path><path class="link" marker-end="" d="M676,398.5C739.75,398.5 739.75,557.5 803.5,557.5" style="stroke-width: 0.85; stroke-opacity: 1; stroke: rgb(255, 68, 68); fill: none; opacity: 1;"></path><path class="link" marker-end="" d="M727,398.5C714.25,398.5 714.25,557.5 701.5,557.5" style="stroke-width: 0.85; stroke-opacity: 1; stroke: rgb(163, 163, 255); fill: none; opacity: 1;"></path><path class="link" marker-end="" d="M727,398.5C739.75,398.5 739.75,557.5 752.5,557.5" style="stroke-width: 0.85; stroke-opacity: 1; stroke: rgb(255, 199, 199); fill: none; opacity: 1;"></path><path class="link" marker-end="" d="M727,398.5C765.25,398.5 765.25,557.5 803.5,557.5" style="stroke-width: 0.85; stroke-opacity: 1; stroke: rgb(255, 202, 202); fill: none; opacity: 1;"></path><path class="link" marker-end="" d="M778,398.5C739.75,398.5 739.75,557.5 701.5,557.5" style="stroke-width: 0.85; stroke-opacity: 1; stroke: rgb(91, 91, 255); fill: none; opacity: 1;"></path><path class="link" marker-end="" d="M778,398.5C765.25,398.5 765.25,557.5 752.5,557.5" style="stroke-width: 0.85; stroke-opacity: 1; stroke: rgb(55, 55, 255); fill: none; opacity: 1;"></path><path class="link" marker-end="" d="M778,398.5C790.75,398.5 790.75,557.5 803.5,557.5" style="stroke-width: 0.85; stroke-opacity: 1; stroke: rgb(241, 241, 255); fill: none; opacity: 1;"></path><path class="link" marker-end="" d="M829,398.5C765.25,398.5 765.25,557.5 701.5,557.5" style="stroke-width: 0.85; stroke-opacity: 1; stroke: rgb(255, 137, 137); fill: none; opacity: 1;"></path><path class="link" marker-end="" d="M829,398.5C790.75,398.5 790.75,557.5 752.5,557.5" style="stroke-width: 0.85; stroke-opacity: 1; stroke: rgb(255, 138, 138); fill: none; opacity: 1;"></path><path class="link" marker-end="" d="M829,398.5C816.25,398.5 816.25,557.5 803.5,557.5" style="stroke-width: 0.85; stroke-opacity: 1; stroke: rgb(191, 191, 255); fill: none; opacity: 1;"></path><path class="link" marker-end="" d="M880,398.5C790.75,398.5 790.75,557.5 701.5,557.5" style="stroke-width: 0.85; stroke-opacity: 1; stroke: rgb(255, 66, 66); fill: none; opacity: 1;"></path><path class="link" marker-end="" d="M880,398.5C816.25,398.5 816.25,557.5 752.5,557.5" style="stroke-width: 0.85; stroke-opacity: 1; stroke: rgb(153, 153, 255); fill: none; opacity: 1;"></path><path class="link" marker-end="" d="M880,398.5C841.75,398.5 841.75,557.5 803.5,557.5" style="stroke-width: 0.85; stroke-opacity: 1; stroke: rgb(255, 44, 44); fill: none; opacity: 1;"></path><path class="link" marker-end="" d="M931,398.5C816.25,398.5 816.25,557.5 701.5,557.5" style="stroke-width: 0.85; stroke-opacity: 1; stroke: rgb(255, 172, 172); fill: none; opacity: 1;"></path><path class="link" marker-end="" d="M931,398.5C841.75,398.5 841.75,557.5 752.5,557.5" style="stroke-width: 0.85; stroke-opacity: 1; stroke: rgb(255, 234, 234); fill: none; opacity: 1;"></path><path class="link" marker-end="" d="M931,398.5C867.25,398.5 867.25,557.5 803.5,557.5" style="stroke-width: 0.85; stroke-opacity: 1; stroke: rgb(168, 168, 255); fill: none; opacity: 1;"></path><path class="link" marker-end="" d="M676,239.5C829,239.5 829,398.5 982,398.5" style="stroke-width: 0.85; stroke-opacity: 1; stroke: rgb(255, 151, 151); fill: none; opacity: 1;"></path><path class="link" marker-end="" d="M676,239.5C854.5,239.5 854.5,398.5 1033,398.5" style="stroke-width: 0.85; stroke-opacity: 1; stroke: rgb(241, 241, 255); fill: none; opacity: 1;"></path><path class="link" marker-end="" d="M676,239.5C880,239.5 880,398.5 1084,398.5" style="stroke-width: 0.85; stroke-opacity: 1; stroke: rgb(255, 49, 49); fill: none; opacity: 1;"></path><path class="link" marker-end="" d="M676,239.5C905.5,239.5 905.5,398.5 1135,398.5" style="stroke-width: 0.85; stroke-opacity: 1; stroke: rgb(255, 84, 84); fill: none; opacity: 1;"></path><path class="link" marker-end="" d="M727,239.5C854.5,239.5 854.5,398.5 982,398.5" style="stroke-width: 0.85; stroke-opacity: 1; stroke: rgb(255, 208, 208); fill: none; opacity: 1;"></path><path class="link" marker-end="" d="M727,239.5C880,239.5 880,398.5 1033,398.5" style="stroke-width: 0.85; stroke-opacity: 1; stroke: rgb(255, 41, 41); fill: none; opacity: 1;"></path><path class="link" marker-end="" d="M727,239.5C905.5,239.5 905.5,398.5 1084,398.5" style="stroke-width: 0.85; stroke-opacity: 1; stroke: rgb(255, 169, 169); fill: none; opacity: 1;"></path><path class="link" marker-end="" d="M727,239.5C931,239.5 931,398.5 1135,398.5" style="stroke-width: 0.85; stroke-opacity: 1; stroke: rgb(255, 177, 177); fill: none; opacity: 1;"></path><path class="link" marker-end="" d="M778,239.5C880,239.5 880,398.5 982,398.5" style="stroke-width: 0.85; stroke-opacity: 1; stroke: rgb(255, 63, 63); fill: none; opacity: 1;"></path><path class="link" marker-end="" d="M778,239.5C905.5,239.5 905.5,398.5 1033,398.5" style="stroke-width: 0.85; stroke-opacity: 1; stroke: rgb(255, 238, 238); fill: none; opacity: 1;"></path><path class="link" marker-end="" d="M778,239.5C931,239.5 931,398.5 1084,398.5" style="stroke-width: 0.85; stroke-opacity: 1; stroke: rgb(79, 79, 255); fill: none; opacity: 1;"></path><path class="link" marker-end="" d="M778,239.5C956.5,239.5 956.5,398.5 1135,398.5" style="stroke-width: 0.85; stroke-opacity: 1; stroke: rgb(255, 49, 49); fill: none; opacity: 1;"></path><path class="link" marker-end="" d="M829,239.5C905.5,239.5 905.5,398.5 982,398.5" style="stroke-width: 0.85; stroke-opacity: 1; stroke: rgb(26, 26, 255); fill: none; opacity: 1;"></path><path class="link" marker-end="" d="M829,239.5C931,239.5 931,398.5 1033,398.5" style="stroke-width: 0.85; stroke-opacity: 1; stroke: rgb(207, 207, 255); fill: none; opacity: 1;"></path><path class="link" marker-end="" d="M829,239.5C956.5,239.5 956.5,398.5 1084,398.5" style="stroke-width: 0.85; stroke-opacity: 1; stroke: rgb(75, 75, 255); fill: none; opacity: 1;"></path><path class="link" marker-end="" d="M829,239.5C982,239.5 982,398.5 1135,398.5" style="stroke-width: 0.85; stroke-opacity: 1; stroke: rgb(223, 223, 255); fill: none; opacity: 1;"></path><path class="link" marker-end="" d="M982,398.5C841.75,398.5 841.75,557.5 701.5,557.5" style="stroke-width: 0.85; stroke-opacity: 1; stroke: rgb(254, 254, 255); fill: none; opacity: 1;"></path><path class="link" marker-end="" d="M982,398.5C867.25,398.5 867.25,557.5 752.5,557.5" style="stroke-width: 0.85; stroke-opacity: 1; stroke: rgb(88, 88, 255); fill: none; opacity: 1;"></path><path class="link" marker-end="" d="M982,398.5C892.75,398.5 892.75,557.5 803.5,557.5" style="stroke-width: 0.85; stroke-opacity: 1; stroke: rgb(255, 119, 119); fill: none; opacity: 1;"></path><path class="link" marker-end="" d="M1033,398.5C867.25,398.5 867.25,557.5 701.5,557.5" style="stroke-width: 0.85; stroke-opacity: 1; stroke: rgb(255, 38, 38); fill: none; opacity: 1;"></path><path class="link" marker-end="" d="M1033,398.5C892.75,398.5 892.75,557.5 752.5,557.5" style="stroke-width: 0.85; stroke-opacity: 1; stroke: rgb(255, 210, 210); fill: none; opacity: 1;"></path><path class="link" marker-end="" d="M1033,398.5C918.25,398.5 918.25,557.5 803.5,557.5" style="stroke-width: 0.85; stroke-opacity: 1; stroke: rgb(255, 161, 161); fill: none; opacity: 1;"></path><path class="link" marker-end="" d="M1084,398.5C892.75,398.5 892.75,557.5 701.5,557.5" style="stroke-width: 0.85; stroke-opacity: 1; stroke: rgb(255, 148, 148); fill: none; opacity: 1;"></path><path class="link" marker-end="" d="M1084,398.5C918.25,398.5 918.25,557.5 752.5,557.5" style="stroke-width: 0.85; stroke-opacity: 1; stroke: rgb(40, 40, 255); fill: none; opacity: 1;"></path><path class="link" marker-end="" d="M1084,398.5C943.75,398.5 943.75,557.5 803.5,557.5" style="stroke-width: 0.85; stroke-opacity: 1; stroke: rgb(183, 183, 255); fill: none; opacity: 1;"></path><path class="link" marker-end="" d="M1135,398.5C918.25,398.5 918.25,557.5 701.5,557.5" style="stroke-width: 0.85; stroke-opacity: 1; stroke: rgb(113, 113, 255); fill: none; opacity: 1;"></path><path class="link" marker-end="" d="M1135,398.5C943.75,398.5 943.75,557.5 752.5,557.5" style="stroke-width: 0.85; stroke-opacity: 1; stroke: rgb(122, 122, 255); fill: none; opacity: 1;"></path><path class="link" marker-end="" d="M1135,398.5C969.25,398.5 969.25,557.5 803.5,557.5" style="stroke-width: 0.85; stroke-opacity: 1; stroke: rgb(255, 207, 207); fill: none; opacity: 1;"></path><path class="link" marker-end="" d="M676,239.5C523,239.5 523,398.5 370,398.5" style="stroke-width: 0.85; stroke-opacity: 1; stroke: rgb(255, 245, 245); fill: none; opacity: 1;"></path><path class="link" marker-end="" d="M727,239.5C548.5,239.5 548.5,398.5 370,398.5" style="stroke-width: 0.85; stroke-opacity: 1; stroke: rgb(255, 14, 14); fill: none; opacity: 1;"></path><path class="link" marker-end="" d="M778,239.5C574,239.5 574,398.5 370,398.5" style="stroke-width: 0.85; stroke-opacity: 1; stroke: rgb(255, 5, 5); fill: none; opacity: 1;"></path><path class="link" marker-end="" d="M829,239.5C599.5,239.5 599.5,398.5 370,398.5" style="stroke-width: 0.85; stroke-opacity: 1; stroke: rgb(208, 208, 255); fill: none; opacity: 1;"></path><circle r="15.5" class="node" id="0_0" cx="676" cy="239.5" style="fill: rgb(122, 122, 122); stroke: rgb(0, 64, 255); opacity: 1;"></circle><circle r="15.5" class="node" id="0_1" cx="727" cy="239.5" style="fill: rgb(122, 122, 122); stroke: rgb(0, 64, 255); opacity: 1;"></circle><circle r="15.5" class="node" id="0_2" cx="778" cy="239.5" style="fill: rgb(122, 122, 122); stroke: rgb(0, 64, 255); opacity: 1;"></circle><circle r="15.5" class="node" id="0_3" cx="829" cy="239.5" style="fill: rgb(122, 122, 122); stroke: rgb(0, 64, 255); opacity: 1;"></circle><circle r="15.5" class="node" id="1_0" cx="370" cy="398.5" style="fill: rgb(122, 122, 122); stroke: rgb(0, 64, 255); opacity: 1;"></circle><circle r="15.5" class="node" id="1_1" cx="421" cy="398.5" style="fill: rgb(122, 122, 122); stroke: rgb(0, 64, 255); opacity: 1;"></circle><circle r="15.5" class="node" id="1_2" cx="472" cy="398.5" style="fill: rgb(122, 122, 122); stroke: rgb(0, 64, 255); opacity: 1;"></circle><circle r="15.5" class="node" id="1_3" cx="523" cy="398.5" style="fill: rgb(122, 122, 122); stroke: rgb(0, 64, 255); opacity: 1;"></circle><circle r="15.5" class="node" id="1_4" cx="574" cy="398.5" style="fill: rgb(122, 122, 122); stroke: rgb(0, 64, 255); opacity: 1;"></circle><circle r="15.5" class="node" id="1_5" cx="625" cy="398.5" style="fill: rgb(122, 122, 122); stroke: rgb(0, 64, 255); opacity: 1;"></circle><circle r="15.5" class="node" id="1_6" cx="676" cy="398.5" style="fill: rgb(122, 122, 122); stroke: rgb(0, 64, 255); opacity: 1;"></circle><circle r="15.5" class="node" id="1_7" cx="727" cy="398.5" style="fill: rgb(122, 122, 122); stroke: rgb(0, 64, 255); opacity: 1;"></circle><circle r="15.5" class="node" id="1_8" cx="778" cy="398.5" style="fill: rgb(122, 122, 122); stroke: rgb(0, 64, 255); opacity: 1;"></circle><circle r="15.5" class="node" id="1_9" cx="829" cy="398.5" style="fill: rgb(122, 122, 122); stroke: rgb(0, 64, 255); opacity: 1;"></circle><circle r="15.5" class="node" id="1_10" cx="880" cy="398.5" style="fill: rgb(122, 122, 122); stroke: rgb(0, 64, 255); opacity: 1;"></circle><circle r="15.5" class="node" id="1_11" cx="931" cy="398.5" style="fill: rgb(122, 122, 122); stroke: rgb(0, 64, 255); opacity: 1;"></circle><circle r="15.5" class="node" id="1_12" cx="982" cy="398.5" style="fill: rgb(122, 122, 122); stroke: rgb(0, 64, 255); opacity: 1;"></circle><circle r="15.5" class="node" id="1_13" cx="1033" cy="398.5" style="fill: rgb(122, 122, 122); stroke: rgb(0, 64, 255); opacity: 1;"></circle><circle r="15.5" class="node" id="1_14" cx="1084" cy="398.5" style="fill: rgb(122, 122, 122); stroke: rgb(0, 64, 255); opacity: 1;"></circle><circle r="15.5" class="node" id="1_15" cx="1135" cy="398.5" style="fill: rgb(122, 122, 122); stroke: rgb(0, 64, 255); opacity: 1;"></circle><circle r="15.5" class="node" id="2_0" cx="701.5" cy="557.5" style="fill: rgb(122, 122, 122); stroke: rgb(0, 64, 255); opacity: 1;"></circle><circle r="15.5" class="node" id="2_1" cx="752.5" cy="557.5" style="fill: rgb(122, 122, 122); stroke: rgb(0, 64, 255); opacity: 1;"></circle><circle r="15.5" class="node" id="2_2" cx="803.5" cy="557.5" style="fill: rgb(122, 122, 122); stroke: rgb(0, 64, 255); opacity: 1;"></circle><text class="text" dy=".35em" x="1186" y="239.5" style="font-size: 12px;">Input Layer ∈ ℝ⁴</text><text class="text" dy=".35em" x="1186" y="398.5" style="font-size: 12px;">Hidden Layer ∈ ℝ¹⁶</text><text class="text" dy=".35em" x="1186" y="557.5" style="font-size: 12px;">Output Layer ∈ ℝ³</text></g><defs><marker id="arrow" viewBox="0 -5 10 10" markerWidth="7" markerHeight="7" orient="auto" refX="55.4"><path d="M0,-5L10,0L0,5" style="stroke: rgb(80, 80, 80); fill: rgb(80, 80, 80);"></path></marker></defs></svg>